<svg width="512" height="456" viewBox="0 0 512 456" fill="none" xmlns="http://www.w3.org/2000/svg">
<path d="M512 153.867C512 197.16 495.867 236.809 461.227 278.602C430.23 316 385.695 353.957 334.113 397.91C316.488 412.926 296.516 429.949 275.793 448.082C270.363 452.832 263.406 455.469 256.18 455.512H256C248.711 455.512 241.684 452.871 236.207 448.074C215.523 429.988 195.582 412.984 177.988 397.988L177.898 397.922C126.324 353.965 81.7695 316 50.7812 278.602C16.1328 236.809 0 197.16 0 153.867C0 111.801 14.4258 72.9844 40.6172 44.5742C67.125 15.8242 103.492 0 143.031 0C172.59 0 199.648 9.33594 223.48 27.7617C235.508 37.0664 246.402 48.4414 256 61.7266L256.18 61.4883C265.738 48.3047 276.574 37.0078 288.527 27.7617C312.352 9.33594 339.422 0 368.969 0C408.516 0 444.883 15.8242 471.383 44.5742C497.574 72.9844 512 111.789 512 153.867Z" fill="#EEEDED"/>
<path d="M512 153.867C512 197.16 495.867 236.809 461.227 278.602C430.23 316 385.695 353.957 334.113 397.91C316.488 412.926 296.516 429.949 275.793 448.082C270.363 452.832 263.406 455.469 256.18 455.512V61.4883C265.738 48.3047 276.574 37.0078 288.527 27.7617C312.352 9.33594 339.422 0 368.969 0C408.516 0 444.883 15.8242 471.383 44.5742C497.574 72.9844 512 111.789 512 153.867Z" fill="#EEEDED"/>
</svg>
